<svg xmlns="http://www.w3.org/2000/svg" width="700" height="300" viewBox="0 0 700 300"><defs>
<linearGradient id="silver" x1="0" y1="0" x2="1" y2="1"><stop stop-color="#DCE2E4" stop-opacity=".92"/><stop offset=".5" stop-color="#8F9AA1" stop-opacity=".78"/><stop offset="1" stop-color="#8F9AA1" stop-opacity=".42"/></linearGradient>
<linearGradient id="lime" x1="1" y1="0" x2="0" y2="1"><stop stop-color="#C8D463" stop-opacity=".96"/><stop offset=".48" stop-color="#C8D463" stop-opacity=".65"/><stop offset="1" stop-color="#8F9AA1" stop-opacity=".38"/></linearGradient>
<linearGradient id="edge"><stop stop-color="#DCE2E4" stop-opacity=".85"/><stop offset="1" stop-color="#DCE2E4" stop-opacity=".28"/></linearGradient>
</defs><g transform="translate(10 14)"><path d="M12 64 L112 5 Q122 -1 122 11 L122 133 Q122 142 114 147 L14 205 Q4 211 4 200 L4 78 Q4 69 12 64Z" fill="url(#silver)" stroke="url(#edge)" stroke-width="1.3"/>
<path d="M70 120 L170 61 Q180 55 180 67 L180 189 Q180 198 172 203 L72 261 Q62 267 62 256 L62 134 Q62 125 70 120Z" fill="url(#lime)" stroke="url(#edge)" stroke-width="1.3"/></g><text x="234" y="174" font-family="Inter, Arial, sans-serif" font-size="83" letter-spacing="-3"><tspan fill="#38444B" font-weight="500">Glass</tspan><tspan fill="#8F9AA1" x="451" font-weight="400">Code</tspan></text><text x="239" y="213" font-family="Inter, Arial, sans-serif" font-size="12" letter-spacing="4.1" fill="#38444B">SOFTWARE PARA O SETOR DE VIDRO</text></svg>